<?xml version="1.0" encoding="utf-8"?>
<!-- Generator: Adobe Illustrator 21.1.0, SVG Export Plug-In . SVG Version: 6.00 Build 0)  -->
<svg version="1.1" id="agi-svg-icons" xmlns="http://www.w3.org/2000/svg" xmlns:xlink="http://www.w3.org/1999/xlink" x="0px"
	 y="0px" width="32px" height="32px" viewBox="0 0 32 32" enable-background="new 0 0 32 32" xml:space="preserve">
<path id="agi-instagram-icon" d="M4.107,0h23.785C30.152,0,32,1.848,32,4.107v23.786C32,30.152,30.152,32,27.893,32H4.107
	C1.848,32,0,30.152,0,27.893V4.107C0,1.848,1.848,0,4.107,0L4.107,0z M23.311,3.555c-0.792,0-1.441,0.648-1.441,1.441v3.448
	c0,0.792,0.648,1.441,1.441,1.441h3.617c0.792,0,1.441-0.648,1.441-1.441V4.996c0-0.792-0.648-1.441-1.441-1.441H23.311
	L23.311,3.555z M28.383,13.533h-2.817c0.267,0.87,0.41,1.792,0.41,2.746c0,5.323-4.453,9.637-9.946,9.637
	c-5.493,0-9.946-4.315-9.946-9.637c0-0.954,0.144-1.875,0.41-2.746H3.556V27.05c0,0.7,0.572,1.272,1.272,1.272h22.284
	c0.7,0,1.272-0.572,1.272-1.272V13.533L28.383,13.533z M16.03,9.703c-3.549,0-6.427,2.788-6.427,6.227
	c0,3.439,2.877,6.227,6.427,6.227c3.549,0,6.427-2.788,6.427-6.227C22.457,12.491,19.58,9.703,16.03,9.703z"/>
<path id="agi-facebook-icon" d="M27.592,6.983h-2.925c-1.025,0-1.391,0.586-1.391,1.391v2.779h4.316l-0.512,4.903h-3.804v13.68
	h-5.78v-13.68H14.57v-4.903h2.926V8.373c0-3.292,1.098-5.925,5.78-6.071h4.316V6.983z M0,31.999h32V0H0V31.999z"/>
<path id="agi-facebook-o" d="M11.571,32V17.404h5.256l0.787-5.689h-6.043V8.082c0-1.646,0.491-2.769,3.024-2.769l3.231-0.002V0.224
	C17.267,0.154,15.349,0,13.117,0C8.459,0,5.269,2.651,5.269,7.52v4.195H0v5.689h5.269V32H11.571z"/>
<path id="agi-google-plus-o" d="M16.844,25.704c0-0.271-0.029-0.528-0.096-0.778c-0.058-0.254-0.11-0.476-0.172-0.687
	c-0.064-0.215-0.183-0.437-0.342-0.667c-0.156-0.232-0.285-0.43-0.4-0.583c-0.114-0.16-0.287-0.351-0.508-0.57
	c-0.234-0.222-0.405-0.379-0.526-0.489c-0.137-0.115-0.342-0.275-0.621-0.5c-0.295-0.213-0.485-0.362-0.592-0.428
	c-0.116-0.083-0.333-0.236-0.653-0.454c-0.302-0.208-0.49-0.351-0.577-0.392c-0.201-0.031-0.532-0.046-0.955-0.046
	c-0.698,0-1.382,0.049-2.042,0.136c-0.66,0.094-1.366,0.246-2.068,0.482c-0.722,0.222-1.344,0.524-1.904,0.879
	c-0.526,0.364-0.963,0.847-1.31,1.437c-0.358,0.614-0.51,1.302-0.51,2.072c0,0.869,0.201,1.643,0.673,2.327
	c0.461,0.691,1.046,1.222,1.782,1.618c0.735,0.386,1.505,0.684,2.323,0.871c0.797,0.191,1.623,0.292,2.444,0.292
	c0.741,0,1.47-0.08,2.144-0.237c0.694-0.17,1.344-0.412,1.94-0.753c0.616-0.341,1.086-0.812,1.445-1.417
	C16.664,27.217,16.844,26.516,16.844,25.704 M14.547,9.131c0-0.774-0.11-1.583-0.327-2.451c-0.217-0.869-0.515-1.705-0.909-2.511
	c-0.382-0.809-0.935-1.476-1.622-2.007c-0.675-0.521-1.438-0.787-2.292-0.787c-1.197,0-2.105,0.451-2.77,1.329
	c-0.66,0.889-0.98,1.948-0.98,3.173c0,0.608,0.079,1.233,0.215,1.903c0.149,0.667,0.383,1.337,0.685,2
	c0.309,0.663,0.662,1.274,1.074,1.798c0.423,0.535,0.915,0.966,1.505,1.306c0.585,0.319,1.215,0.496,1.881,0.496
	c1.241,0,2.132-0.386,2.688-1.163C14.259,11.44,14.547,10.416,14.547,9.131 M12.008,0h8.414l-2.596,1.521h-2.606
	c0.917,0.577,1.623,1.371,2.119,2.413c0.492,1.041,0.744,2.121,0.744,3.253c0,0.948-0.149,1.796-0.436,2.528
	c-0.289,0.733-0.648,1.338-1.073,1.771c-0.417,0.462-0.85,0.869-1.267,1.247c-0.435,0.378-0.787,0.771-1.072,1.18
	c-0.314,0.403-0.451,0.829-0.451,1.295c0,0.334,0.098,0.656,0.307,0.976c0.219,0.329,0.5,0.636,0.836,0.927
	c0.346,0.292,0.713,0.601,1.136,0.927c0.398,0.316,0.809,0.678,1.221,1.066c0.412,0.389,0.791,0.809,1.113,1.264
	c0.353,0.458,0.636,1.006,0.832,1.631c0.208,0.639,0.315,1.32,0.315,2.06c0,2.041-0.887,3.85-2.693,5.42
	c-1.932,1.673-4.638,2.521-8.073,2.521c-0.741,0-1.52-0.07-2.302-0.198c-0.775-0.125-1.561-0.344-2.337-0.646
	c-0.784-0.296-1.481-0.67-2.096-1.114c-0.588-0.434-1.086-1.007-1.464-1.705C0.183,27.623,0,26.849,0,25.995
	c0-0.778,0.231-1.646,0.707-2.593c0.4-0.83,1.035-1.529,1.849-2.129c0.823-0.594,1.744-1.049,2.779-1.368
	c1.035-0.313,2.037-0.542,2.992-0.691c0.952-0.143,1.904-0.233,2.883-0.257c-0.832-1.073-1.241-2.021-1.241-2.868
	c0-0.146,0.012-0.305,0.049-0.448c0.023-0.153,0.047-0.267,0.1-0.371c0.039-0.104,0.08-0.25,0.146-0.42
	c0.071-0.171,0.114-0.313,0.13-0.413c-0.516,0.07-0.95,0.097-1.345,0.097c-1.9,0-3.554-0.629-4.909-1.889
	c-1.358-1.256-2.039-2.829-2.039-4.718c0-1.805,0.606-3.413,1.826-4.833c1.201-1.41,2.7-2.313,4.49-2.709
	C9.621,0.121,10.828,0,12.008,0 M32,4.916v2.458h-4.936v4.93h-2.466v-4.93h-4.899V4.916h4.899V0h2.466v4.916H32z"/>
<path id="agi-linkedin-o" d="M0.526,10.606H7.16v21.337H0.526V10.606z M3.843,0c2.12,0,3.843,1.723,3.843,3.847
	c0,2.122-1.723,3.845-3.843,3.845C1.718,7.692,0,5.968,0,3.847C0,1.723,1.718,0,3.843,0 M11.319,31.943h6.629V21.389
	c0-2.782,0.526-5.48,3.977-5.48c3.403,0,3.446,3.183,3.446,5.658v10.376H32V20.241c0-5.745-1.239-10.163-7.955-10.163
	c-3.225,0-5.389,1.768-6.274,3.446H17.68v-2.918h-6.361V31.943z"/>
<polygon id="agi-chevron-right" points="11.824,16 0,4.176 4.172,0 20.169,16 4.172,32 0,27.827 "/>
<polygon id="agi-chevron-left" points="8.338,15.987 20.153,4.172 15.984,0 0,15.987 15.984,31.974 20.153,27.805 "/>
<polygon id="agi-caret-right" points="0,0 15.974,15.974 0,31.947 "/>
<polygon id="agi-caret-left" points="15.974,0 0,15.974 15.974,31.947 "/>
<polygon id="agi-caret-up" points="31.947,15.974 15.974,0 0,15.974 "/>
<polygon id="agi-caret-down" points="31.947,0 15.974,15.974 0,0 "/>
<path id="agi-caret-up-down" d="M25.963,19.018L12.982,32L0,19.018H25.963z M25.963,12.982L12.982,0L0,12.982H25.963z"/>
<polygon id="agi-home" points="32,13.607 16,0 0,13.607 3.799,13.607 3.799,32 11.705,32 11.705,21.272 20.295,21.272 20.295,32 
	28.201,32 28.201,13.607 "/>
<g id="agi-facebook-col">
	<rect id="pw-facebook-col-square" fill="#3C5294" width="32" height="32"/>
	<path id="pw-facebook-col-f" fill="#FFFFFF" d="M17.86,27.2V16.982h3.679L22.09,13h-4.23v-2.542c0-1.153,0.343-1.938,2.117-1.938
		l2.262-0.001V4.957C21.848,4.908,20.505,4.8,18.943,4.8c-3.261,0-5.494,1.856-5.494,5.264V13H9.761v3.982h3.688V27.2H17.86z"/>
</g>
<g id="agi-twitter-col">
	<rect id="pw-twitter-col-square" fill="#3CA8E0" width="32" height="32"/>
	<path id="pw-twitter-col-bird" fill="#FFFFFF" d="M27.2,9.053c-0.824,0.365-1.71,0.613-2.64,0.723
		c0.949-0.569,1.678-1.469,2.021-2.542c-0.888,0.527-1.872,0.909-2.918,1.115c-0.838-0.893-2.033-1.451-3.355-1.451
		c-2.538,0-4.596,2.058-4.596,4.595c0,0.361,0.041,0.711,0.119,1.047c-3.819-0.191-7.206-2.021-9.472-4.802
		c-0.396,0.679-0.622,1.469-0.622,2.311c0,1.594,0.811,3.001,2.045,3.825C7.028,13.851,6.32,13.644,5.7,13.3
		c0,0.019,0,0.038,0,0.058c0,2.227,1.584,4.084,3.686,4.506c-0.386,0.105-0.792,0.161-1.211,0.161c-0.296,0-0.584-0.029-0.865-0.082
		c0.585,1.826,2.282,3.154,4.293,3.191c-1.573,1.233-3.554,1.967-5.707,1.967c-0.371,0-0.737-0.022-1.096-0.064
		c2.034,1.304,4.45,2.065,7.045,2.065c8.453,0,13.075-7.003,13.075-13.076c0-0.199-0.004-0.398-0.013-0.594
		C25.805,10.784,26.584,9.974,27.2,9.053z"/>
</g>
<g id="agi-google-plus-col">
	<rect id="pw-google-plus-col-square" fill="#DA3F2C" width="32" height="32"/>
	<path id="pw-google-plus-col-g" fill="#FFFFFF" d="M16.466,22.861c0-0.19-0.02-0.369-0.067-0.544
		c-0.041-0.178-0.077-0.333-0.12-0.481c-0.045-0.151-0.128-0.306-0.239-0.467c-0.109-0.162-0.2-0.301-0.28-0.408
		c-0.08-0.112-0.201-0.246-0.355-0.399c-0.163-0.156-0.284-0.265-0.368-0.343c-0.096-0.081-0.24-0.192-0.434-0.35
		c-0.207-0.149-0.34-0.253-0.414-0.299c-0.081-0.058-0.233-0.165-0.457-0.318c-0.211-0.146-0.343-0.246-0.404-0.274
		c-0.141-0.022-0.373-0.032-0.668-0.032c-0.489,0-0.967,0.034-1.43,0.095c-0.462,0.066-0.956,0.173-1.447,0.338
		c-0.506,0.156-0.941,0.367-1.333,0.615c-0.368,0.255-0.674,0.593-0.917,1.006c-0.25,0.43-0.357,0.911-0.357,1.451
		c0,0.608,0.141,1.15,0.471,1.629c0.323,0.484,0.732,0.856,1.247,1.133c0.515,0.27,1.054,0.479,1.626,0.61
		c0.558,0.134,1.136,0.204,1.711,0.204c0.519,0,1.029-0.056,1.501-0.166c0.485-0.119,0.941-0.289,1.358-0.527
		c0.431-0.239,0.76-0.569,1.012-0.992C16.34,23.921,16.466,23.43,16.466,22.861 M14.858,11.261c0-0.542-0.077-1.108-0.229-1.716
		c-0.152-0.608-0.361-1.194-0.636-1.758c-0.267-0.566-0.654-1.033-1.136-1.405c-0.472-0.364-1.007-0.551-1.604-0.551
		c-0.838,0-1.473,0.316-1.939,0.931C8.853,7.384,8.629,8.126,8.629,8.983c0,0.426,0.055,0.863,0.151,1.332
		c0.105,0.467,0.268,0.936,0.479,1.4c0.216,0.464,0.463,0.892,0.752,1.259c0.296,0.374,0.64,0.676,1.053,0.914
		c0.41,0.223,0.85,0.347,1.317,0.347c0.869,0,1.492-0.27,1.882-0.814C14.657,12.877,14.858,12.16,14.858,11.261 M13.081,4.869h5.89
		l-1.817,1.064H15.33c0.642,0.404,1.136,0.96,1.483,1.689c0.344,0.729,0.521,1.485,0.521,2.277c0,0.664-0.104,1.257-0.305,1.769
		c-0.202,0.513-0.454,0.936-0.751,1.239c-0.292,0.324-0.595,0.608-0.887,0.873c-0.304,0.264-0.551,0.539-0.75,0.826
		c-0.22,0.282-0.316,0.581-0.316,0.906c0,0.234,0.069,0.459,0.215,0.683c0.153,0.231,0.35,0.445,0.585,0.649
		c0.242,0.204,0.499,0.421,0.795,0.649c0.278,0.221,0.566,0.474,0.855,0.746c0.289,0.273,0.553,0.566,0.779,0.885
		c0.247,0.321,0.445,0.704,0.582,1.142c0.146,0.448,0.22,0.924,0.22,1.442c0,1.429-0.621,2.695-1.885,3.794
		c-1.353,1.171-3.247,1.764-5.651,1.764c-0.519,0-1.064-0.049-1.611-0.139c-0.543-0.087-1.092-0.241-1.636-0.452
		c-0.549-0.207-1.037-0.469-1.467-0.78c-0.412-0.304-0.76-0.705-1.025-1.194c-0.278-0.498-0.406-1.04-0.406-1.638
		c0-0.544,0.162-1.152,0.495-1.815c0.28-0.581,0.724-1.07,1.294-1.49c0.576-0.416,1.221-0.734,1.945-0.958
		c0.724-0.219,1.426-0.379,2.094-0.484c0.667-0.1,1.332-0.163,2.018-0.18c-0.583-0.751-0.869-1.414-0.869-2.007
		c0-0.102,0.008-0.214,0.035-0.314c0.016-0.107,0.033-0.187,0.07-0.26c0.027-0.073,0.056-0.175,0.102-0.294
		c0.05-0.119,0.08-0.219,0.091-0.289c-0.361,0.049-0.665,0.068-0.941,0.068c-1.33,0-2.487-0.44-3.437-1.322
		c-0.951-0.879-1.427-1.981-1.427-3.302c0-1.264,0.424-2.389,1.278-3.383c0.841-0.987,1.89-1.619,3.143-1.896
		C11.41,4.954,12.255,4.869,13.081,4.869 M27.075,8.31v1.721H23.62v3.451h-1.726v-3.451h-3.429V8.31h3.429V4.869h1.726V8.31H27.075z
		"/>
</g>
<g id="agi-linkedin-col">
	<rect id="pw-linkedin-col-square" fill="#5380A7" width="32" height="32"/>
	<path id="pw-linkedin-col-in" fill="#FFFFFF" d="M26.287,17.664v7.267h-4.213v-6.779c0-1.703-0.609-2.865-2.134-2.865
		c-1.164,0-1.856,0.783-2.161,1.541c-0.111,0.271-0.14,0.647-0.14,1.027v7.077h-4.214c0,0,0.056-11.483,0-12.672h4.214v1.796
		c-0.008,0.014-0.02,0.028-0.028,0.041h0.028v-0.041c0.56-0.861,1.559-2.093,3.797-2.093C24.209,11.961,26.287,13.772,26.287,17.664
		L26.287,17.664z M9.017,6.15c-1.442,0-2.384,0.946-2.384,2.189c0,1.217,0.916,2.19,2.329,2.19H8.99c1.469,0,2.383-0.973,2.383-2.19
		C11.345,7.096,10.459,6.15,9.017,6.15L9.017,6.15z M6.884,24.93h4.212V12.259H6.884V24.93z M6.884,24.93"/>
</g>
<path id="agi-chevron-line-dbl-u" d="M30.663,26.741c-0.255,0-0.494-0.099-0.675-0.28L16,12.473L2.013,26.461
	c-0.18,0.18-0.42,0.28-0.675,0.28s-0.495-0.099-0.675-0.28L0.28,26.078C0.099,25.898,0,25.658,0,25.403
	c0-0.254,0.099-0.493,0.279-0.674L15.325,9.683c0.18-0.18,0.42-0.28,0.675-0.28c0.255,0,0.495,0.099,0.675,0.28l15.045,15.045
	C31.902,24.909,32,25.149,32,25.403c0,0.255-0.099,0.495-0.279,0.675l-0.383,0.383C31.157,26.641,30.918,26.741,30.663,26.741z
	 M30.663,17.338c-0.255,0-0.495-0.099-0.675-0.28L16,3.071L2.013,17.058c-0.18,0.18-0.42,0.28-0.675,0.28s-0.495-0.099-0.675-0.28
	L0.28,16.675C0.099,16.495,0,16.255,0,16c0-0.255,0.099-0.495,0.28-0.675L15.325,0.28C15.505,0.099,15.745,0,16,0
	c0.255,0,0.495,0.099,0.675,0.28l15.045,15.045C31.901,15.505,32,15.745,32,16c0,0.255-0.099,0.495-0.279,0.675l-0.383,0.383
	C31.158,17.238,30.918,17.338,30.663,17.338z"/>
<polygon id="agi-chevron-line-u" points="32,16 31.593,16.407 16,0.814 0.407,16.407 0,16 16,0 "/>
<polygon id="agi-chevron-line-d" points="0,0.407 0.407,0 16,15.593 31.593,0 32,0.407 16,16.407 "/>
<polygon id="agi-chevron-line-r" points="0.407,32 0,31.593 15.593,16 0,0.407 0.407,0 16.407,16 "/>
<polygon id="agi-chevron-line-l" points="16,32 0,16 16,0 16.407,0.407 0.814,16 16.407,31.593 "/>
<polygon id="agi-chevron-r" points="0.001,28.323 12.325,15.999 0,3.675 3.675,0 19.674,15.999 3.674,32 "/>
<polygon id="agi-chevron-l" points="19.673,28.323 7.35,15.999 19.674,3.675 15.999,0 0,15.999 16.001,32 "/>
<polygon id="agi-chevron-d" points="3.677,0.001 16.001,12.325 28.325,0 32,3.675 16.001,19.674 0,3.674 "/>
<polygon id="agi-chevron-u" points="28.323,19.673 15.999,7.35 3.675,19.674 0,15.999 15.999,0 32,16.001 "/>
<polygon id="agi-cross-o" points="32,1.088 30.91,0 16,14.909 1.09,0 0,1.088 14.91,15.999 0,30.909 1.09,31.999 16,17.089 
	30.91,31.999 32,30.909 17.09,15.999 "/>
<polygon id="agi-plus-o" points="32,14.815 17.187,14.815 17.187,0 14.813,0 14.813,14.815 0,14.815 0,17.185 14.813,17.185 
	14.813,32 17.187,32 17.187,17.185 32,17.185 "/>
<rect id="agi-minus-o" width="32" height="2.37"/>
<path id="agi-youtube-o" d="M25.999,29.035c-0.338,1.411-1.481,2.447-2.856,2.59C19.858,32,16.536,32,13.233,32
	s-6.625,0-9.911-0.375c-1.375-0.143-2.536-1.179-2.856-2.59C0,27.035,0,24.84,0,22.786c0-2.071,0.018-4.25,0.466-6.249
	c0.338-1.411,1.481-2.447,2.874-2.607c3.267-0.358,6.589-0.358,9.893-0.358s6.625,0,9.911,0.358c1.375,0.16,2.536,1.196,2.856,2.607
	c0.466,1.999,0.466,4.178,0.466,6.249C26.465,24.84,26.447,27.035,25.999,29.035z M7.555,18.339v-1.678H1.984v1.678h1.874v10.162
	h1.786V18.339H7.555z M10.465,0L8.305,7.125v4.84H6.519v-4.84C6.357,6.251,6.001,5,5.428,3.339C5.037,2.232,4.644,1.108,4.269,0
	h1.893L7.43,4.696L8.643,0H10.465z M12.376,28.501v-8.823h-1.591v6.75c-0.357,0.5-0.695,0.75-1.018,0.75
	c-0.213,0-0.338-0.125-0.375-0.375c-0.018-0.053-0.018-0.25-0.018-0.625v-6.5H7.787v6.982c0,0.625,0.052,1.036,0.143,1.304
	c0.143,0.445,0.518,0.661,1.036,0.661c0.57,0,1.177-0.359,1.82-1.091v0.966H12.376z M15.25,9.071c0,0.946-0.161,1.661-0.5,2.107
	c-0.445,0.607-1.073,0.911-1.893,0.911c-0.804,0-1.429-0.305-1.874-0.911c-0.341-0.465-0.5-1.161-0.5-2.107V5.946
	c0-0.946,0.159-1.643,0.5-2.089c0.445-0.607,1.07-0.91,1.874-0.91c0.82,0,1.447,0.303,1.893,0.91c0.338,0.446,0.5,1.143,0.5,2.089
	V9.071z M13.626,5.624c0-0.821-0.232-1.231-0.768-1.231c-0.518,0-0.768,0.41-0.768,1.231v3.75c0,0.821,0.25,1.251,0.768,1.251
	c0.536,0,0.768-0.43,0.768-1.251V5.624z M18.447,22.339c0-0.821-0.036-1.411-0.161-1.768c-0.195-0.661-0.643-1-1.268-1
	c-0.588,0-1.143,0.322-1.661,0.965v-3.875h-1.588v11.84h1.588v-0.858c0.536,0.66,1.091,0.983,1.661,0.983
	c0.625,0,1.073-0.341,1.268-0.983c0.125-0.375,0.161-0.965,0.161-1.786V22.339z M16.856,25.982c0,0.803-0.232,1.196-0.695,1.196
	c-0.268,0-0.536-0.125-0.804-0.393v-5.375c0.268-0.268,0.536-0.393,0.804-0.393c0.463,0,0.695,0.41,0.695,1.196V25.982z
	 M21.233,11.965h-1.624v-0.983c-0.643,0.75-1.25,1.108-1.841,1.108c-0.518,0-0.893-0.215-1.052-0.661
	c-0.091-0.268-0.143-0.696-0.143-1.339V3.054h1.624v6.554c0,0.375,0,0.588,0.018,0.625c0.034,0.25,0.161,0.393,0.375,0.393
	c0.32,0,0.661-0.25,1.018-0.768V3.054h1.624V11.965z M24.482,25.446h-1.624c0,0.643-0.018,1-0.036,1.089
	c-0.089,0.428-0.32,0.643-0.713,0.643c-0.555,0-0.82-0.411-0.82-1.233v-1.553h3.194v-1.839c0-0.946-0.159-1.626-0.482-2.072
	c-0.463-0.607-1.088-0.91-1.893-0.91c-0.82,0-1.445,0.303-1.911,0.91c-0.338,0.446-0.5,1.126-0.5,2.072v3.089
	c0,0.946,0.18,1.643,0.518,2.072c0.463,0.607,1.088,0.911,1.929,0.911c0.838,0,1.5-0.323,1.929-0.948
	c0.195-0.285,0.338-0.607,0.375-0.965c0.034-0.16,0.034-0.518,0.034-1.035V25.446z M22.894,23.054h-1.606v-0.821
	c0-0.804,0.266-1.214,0.802-1.214c0.536,0,0.804,0.41,0.804,1.214V23.054z"/>
<path id="agi-linkedin-o" d="M3.833,7.125H3.79C1.479,7.125,0,5.543,0,3.563C0,1.543,1.543,0,3.875,0
	c2.354,0,3.812,1.543,3.833,3.563C7.73,5.543,6.229,7.125,3.833,7.125z M7.271,30.585H0.395V9.938h6.876V30.585z M32,30.585h-6.855
	V19.543c0-2.771-0.999-4.667-3.478-4.667c-1.895,0-3.022,1.27-3.52,2.5c-0.167,0.459-0.231,1.062-0.231,1.687v11.522h-6.855
	c0.085-18.709,0-20.647,0-20.647h6.855v3.001h-0.043c0.896-1.417,2.521-3.479,6.229-3.479c4.522,0,7.897,2.958,7.897,9.291V30.585z"
	/>
<path id="agi-phone-o" d="M8.99,22.873c-6.368-6.474-7.625-10.587-8.305-12.247C0.004,8.96-0.27,5.812,0.335,4.103
	c0.603-1.71,3.298-3.598,3.298-3.598s1.888-1.136,3.6,0c1.71,1.133,3.676,4.583,3.676,4.583s0.908,1.738,0,2.92
	c-0.908,1.179-1.666,1.86-1.666,1.86s-1.208,1.329-0.605,2.917c0.605,1.591,4.736,5.869,4.736,5.869s4.252,4.113,5.838,4.718
	c1.588,0.605,2.92-0.605,2.92-0.605s0.68-0.755,1.862-1.66c1.18-0.908,2.92,0,2.92,0s3.448,1.963,4.581,3.673
	c1.135,1.71,0,3.6,0,3.6s-1.888,2.693-3.598,3.298c-1.71,0.605-4.858,0.331-6.521-0.349C19.713,30.648,15.464,29.241,8.99,22.873"/>
<path id="agi-comment-o" d="M25.224,14.78c-3.466,6.515-7.626,6.919-11.99,6.919c-4.364,0-5.91-1.058-5.91-1.058
	C3.966,22.497,0,21.847,0,21.847c2.511-0.806,3.509-3.408,3.509-3.408c-3.26-2.709-5.62-9.175-0.05-14.348
	c5.3-4.92,13.042-3.058,13.042-3.058c-3.565,2.062-3.217,5.819-3.217,5.819C14.09,16.436,25.224,14.78,25.224,14.78 M31.949,13.484
	c0,0-2.559,0.484-4.485-0.778c-1.184,0.496-2.534,0.778-3.967,0.778c-4.696,0-8.503-3.018-8.503-6.742S18.801,0,23.497,0
	C28.193,0,32,3.018,32,6.742c0,1.886-0.976,3.592-2.552,4.816C30.003,12.808,31.949,13.484,31.949,13.484z M20.793,6.972
	c0-0.672-0.545-1.219-1.218-1.219c-0.672,0-1.218,0.547-1.218,1.219c0,0.674,0.546,1.218,1.218,1.218
	C20.249,8.19,20.793,7.646,20.793,6.972z M24.939,6.972c0-0.672-0.546-1.219-1.22-1.219c-0.672,0-1.218,0.547-1.218,1.219
	c0,0.674,0.546,1.218,1.218,1.218C24.393,8.19,24.939,7.646,24.939,6.972z M29.081,6.972c0-0.672-0.544-1.219-1.218-1.219
	c-0.672,0-1.218,0.547-1.218,1.219c0,0.674,0.546,1.218,1.218,1.218C28.537,8.19,29.081,7.646,29.081,6.972z"/>
<path id="agi-envelope-o" d="M1.115,0h29.689L16.48,12.246L1.115,0 M32,0.988v21.454L22.165,9.398L32,0.988z M31.118,23.812H0.743
	l10.548-13.744l5.222,4.162l4.487-3.835L31.118,23.812z M0,22.267V1.07l10.094,8.043L0,22.267z"/>
<path id="agi-search-o" d="M30.564,30.374L20.493,20.303c2.109-2.157,3.414-5.102,3.414-8.35C23.907,5.362,18.544,0,11.953,0
	S0,5.362,0,11.954c0,6.592,5.362,11.956,11.953,11.956c2.658,0,5.108-0.883,7.096-2.357l10.168,10.168
	C29.403,31.907,29.647,32,29.89,32c0.244,0,0.487-0.093,0.673-0.279C30.936,31.349,30.936,30.746,30.564,30.374z M1.905,11.954
	c0-5.541,4.508-10.049,10.048-10.049c5.542,0,10.05,4.508,10.05,10.049c0,5.542-4.508,10.051-10.05,10.051
	C6.413,22.004,1.905,17.496,1.905,11.954z M19.19,11.731c0.009,0.324-0.244,0.594-0.567,0.604c-0.007,0.001-0.013,0.001-0.019,0.001
	c-0.316,0-0.575-0.25-0.586-0.567c-0.104-3.354-2.817-5.982-6.175-5.982l-0.37,0.01c-0.004,0-0.009,0-0.015,0
	c-0.316,0-0.577-0.252-0.586-0.57c-0.007-0.324,0.247-0.593,0.571-0.602l0.385-0.01C15.837,4.615,19.065,7.741,19.19,11.731z"/>
<path id="agi-twitter-o" d="M32,3.078c-1.177,0.522-2.443,0.875-3.771,1.034c1.356-0.812,2.397-2.099,2.887-3.632
	c-1.268,0.752-2.673,1.299-4.169,1.593C25.749,0.797,24.043,0,22.155,0c-3.626,0-6.565,2.939-6.565,6.565
	c0,0.515,0.058,1.016,0.17,1.496C10.303,7.787,5.466,5.174,2.228,1.202c-0.565,0.97-0.889,2.097-0.889,3.301
	c0,2.278,1.159,4.287,2.921,5.464C3.183,9.933,2.171,9.637,1.286,9.146c0,0.027-0.001,0.055-0.001,0.083
	c0,3.181,2.263,5.834,5.266,6.438c-0.551,0.15-1.131,0.23-1.73,0.23c-0.423,0-0.834-0.041-1.235-0.118
	c0.835,2.608,3.26,4.506,6.133,4.559c-2.247,1.761-5.078,2.81-8.154,2.81c-0.53,0-1.053-0.031-1.566-0.092
	c2.905,1.863,6.356,2.95,10.064,2.95c12.076,0,18.679-10.004,18.679-18.679c0-0.285-0.006-0.568-0.019-0.849
	C30.007,5.551,31.12,4.395,32,3.078z"/>
<path id="agi-google-plus-new-o" d="M17.814,8.577v0.554c0,5.674-3.324,9.265-8.575,9.265C3.906,18.396,0,14.57,0,9.29
	C0,3.906,3.932,0,9.342,0c3.274,0,5.887,1.425,7.55,4.145l-3.008,1.61c-1.057-1.743-2.587-2.613-4.621-2.613
	c-3.27,0-5.726,2.638-5.726,6.149c0,3.431,2.456,5.992,5.754,5.992c2.507,0,4.355-1.478,4.617-3.723H8.086V8.577H17.814z M20.2,7.9
	v2.11h4.83v4.83h2.112v-4.83H32V7.9h-4.858V3.042H25.03V7.9H20.2z"/>
<path id="agi-pinterest-o" d="M4.443,20.085l0.99-2.956c0,0-4.014-4.795,0.141-10.44c0,0,4.724-5.982,11.987-1.617
	c0,0,5.714,3.514,2.396,11.765c0,0-2.119,4.599-5.924,3.819c-3.805-0.782-1.839-5.087-1.839-5.087l1.059-3.167
	c0,0,1.129-3.875-1.548-4.585s-4.027,2.468-4.027,2.468s-1.258,3.164,0.153,5.284l-2.188,9.38c0,0-0.838,3.889-0.069,6.565
	c0,0,0.208,1.187,1.337-0.153c1.129-1.337,2.746-5.48,3.664-9.438c0,0,1.536,2.036,4.226,2.036c2.69,0,8.251-0.641,10.37-9.38
	c2.119-8.739-5.515-13.068-7.611-13.815C15.373-0.014,5.43-2.05,1.276,6.828C-2.879,15.709,4.443,20.085,4.443,20.085z"/>
<polygon id="agi-sidebar-bottom" points="32.026,0 0.026,0 32.026,4.861 "/>
<polygon id="agi-bullet-tick-o" points="32,3.973 28.028,0 10.942,17.086 3.972,10.116 0,14.087 10.947,25.034 14.919,21.063 
	14.914,21.058 "/>
<path id="agi-bullet-tick" d="M0,0v32h32V0H0z M12.361,26.993l-9.699-9.708l3.723-3.723l5.981,5.981L26.191,5.718l3.723,3.72
	L12.361,26.993z"/>
<path id="agi-heart-o" d="M15.214,27.107L4.072,16.357C3.928,16.232,0,12.643,0,8.357C0,3.125,3.197,0,8.536,0
	C11.66,0,14.589,2.464,16,3.857C17.411,2.464,20.34,0,23.464,0C28.803,0,32,3.125,32,8.357c0,4.286-3.928,7.875-4.09,8.036
	L16.786,27.107c-0.215,0.215-0.5,0.322-0.786,0.322S15.429,27.322,15.214,27.107z"/>
<path id="agi-retweet-o" d="M20.8,19.201h-16c-0.617,0-0.533-0.651-0.533-1.067v-2.668V8.533h-3.2C0.484,8.533,0,8.05,0,7.467
	c0-0.25,0.084-0.501,0.25-0.683l5.333-6.4C5.783,0.149,6.083,0.017,6.4,0.017s0.617,0.132,0.816,0.367l5.333,6.4
	c0.166,0.182,0.25,0.432,0.25,0.683c0,0.583-0.484,1.067-1.067,1.067h-3.2v6.4h9.6c0.149,0,0.317,0.067,0.417,0.183l2.667,3.2
	c0.067,0.1,0.117,0.233,0.117,0.35C21.333,18.951,21.083,19.201,20.8,19.201z M31.75,12.416l-5.333,6.401
	c-0.199,0.233-0.499,0.384-0.816,0.384c-0.317,0-0.617-0.151-0.816-0.384l-5.333-6.401c-0.166-0.182-0.25-0.432-0.25-0.683
	c0-0.583,0.484-1.067,1.067-1.067h3.2v-6.4h-9.6c-0.149,0-0.317-0.067-0.417-0.2l-2.667-3.2c-0.067-0.083-0.117-0.216-0.117-0.333
	C10.667,0.25,10.917,0,11.2,0h16c0.617,0,0.533,0.65,0.533,1.067v2.667v6.933h3.2c0.583,0,1.067,0.484,1.067,1.067
	C32,11.984,31.916,12.234,31.75,12.416z"/>
<path id="agi-elipses-o" d="M8.421,4.211c0,2.325-1.885,4.211-4.211,4.211S0,6.536,0,4.211S1.885,0,4.211,0S8.421,1.885,8.421,4.211
	z M16,0c-2.325,0-4.211,1.885-4.211,4.211S13.675,8.421,16,8.421s4.211-1.885,4.211-4.211S18.325,0,16,0z M27.789,0
	c-2.325,0-4.211,1.885-4.211,4.211s1.885,4.211,4.211,4.211S32,6.536,32,4.211S30.115,0,27.789,0z"/>
<path id="agi-download-o" d="M12.803,23.469l10.667-10.667h-6.408V0H8.531l0.043,12.803H2.136L12.803,23.469z M12.803,23.469
	 M21.333,23.469v4.259H4.272v-4.259H0V32h25.605v-8.531H21.333z M21.333,23.469"/>
<path id="agi-navicon-o" d="M0,0h32v5.485H0V0z M0,16.88h32v-5.485H0V16.88z M0,28.275h32V22.79H0V28.275z"/>
<g id="agi-logo">
	<path fill="#FFFFFF" d="M16.649,10.145c0.687-0.254,0.971-0.634,1.092-0.979c0.045-0.13,0.08-0.446,0.104-0.715L17.847,0
		c-0.687,0.253-0.971,0.634-1.092,0.979c-0.045,0.13-0.081,0.446-0.104,0.715L16.649,10.145"/>
	<polyline fill="#FFFFFF" points="17.672,8.45 17.672,7.673 17.671,8.461 17.672,8.45 	"/>
	<path fill="#FFFFFF" d="M6.639,7.306v2.896c-0.224-0.086-1.183-0.507-1.183-1.399c0-0.079-0.002-0.263-0.007-0.321V6.781
		c0-1.411-0.885-2.324-2.116-2.324s-2.13,0.927-2.13,2.282c0,1.383,0.927,2.337,2.186,2.337c0.24,0,0.476-0.035,0.709-0.107
		l0.228,1.077c-0.338,0.1-0.696,0.15-1.076,0.15c-0.636,0-1.286-0.207-1.785-0.553C0.512,8.98,0,7.956,0,6.767
		c0-2.005,1.411-3.43,3.319-3.43c1.273,0,2.393,0.678,2.96,1.798C6.625,5.812,6.639,6.504,6.639,7.306"/>
	<path fill="#369C48" d="M23.708,9.581c-0.53,0.384-1.174,0.589-1.885,0.589c-0.589,0-1.163-0.164-1.656-0.465
		c-1.054-0.643-1.656-1.724-1.656-2.956c0-0.917,0.342-1.752,0.971-2.409c0.63-0.643,1.451-0.999,2.354-0.999
		c0.699,0,1.332,0.201,1.87,0.591l-0.824,0.824C22.57,4.552,22.216,4.45,21.823,4.45c-1.163,0-2.094,0.972-2.094,2.286
		c0,1.3,0.944,2.285,2.094,2.285c0.388,0,0.742-0.096,1.046-0.279L23.708,9.581"/>
	<path fill="#369C48" d="M24.762,6.078c-0.219,0.593-0.547,0.838-0.845,0.942c-0.112,0.039-0.385,0.069-0.617,0.089l-2.451-0.001
		c0.218-0.593,0.547-0.838,0.845-0.942c0.112-0.039,0.385-0.069,0.617-0.089L24.762,6.078"/>
	<path fill="#FFFFFF" d="M15.853,10.145c-0.687-0.254-0.971-0.634-1.092-0.979c-0.045-0.13-0.08-0.446-0.104-0.715l-0.009-6.167
		h1.201L15.853,10.145"/>
	<path fill="#FFFFFF" d="M13.886,7.273v3.01c0,0.705-0.011,1.467-0.247,2.066c-0.034,0.089-0.074,0.177-0.119,0.265
		c-0.564,1.115-1.679,1.79-2.946,1.79c-0.399,0-0.775-0.062-1.122-0.179c-0.261-0.087-0.505-0.204-0.728-0.349
		c-0.663-0.441-1.145-1.126-1.348-1.97h1.238c0.179,0.503,0.512,0.896,0.948,1.132c0.299,0.154,0.642,0.239,1.015,0.239
		c1.185,0,2.05-0.846,2.115-2.167c0.002-0.044,0.002-0.232,0.003-0.277l0.001-4.086c0-1.412-0.886-2.326-2.118-2.326
		c-1.232,0-2.132,0.928-2.132,2.284c0,1.385,0.928,2.34,2.187,2.34c0.241,0,0.476-0.035,0.71-0.107l0.229,1.078
		c-0.338,0.1-0.696,0.15-1.077,0.15c-0.637,0-1.287-0.208-1.786-0.554c-0.955-0.665-1.467-1.689-1.467-2.88
		c0-2.007,1.412-3.433,3.322-3.433c1.274,0,2.395,0.678,2.963,1.8C13.872,5.778,13.886,6.47,13.886,7.273"/>
	<path fill-rule="evenodd" clip-rule="evenodd" fill="#FFFFFF" d="M24.234,11.637h0.387v-0.44h-0.387V11.637z M24.234,14.362h0.387
		V12.06h-0.387V14.362z"/>
	<path fill="#FFFFFF" d="M14.603,13.614c0.009,0.528,0.334,0.819,0.924,0.819c0.616,0,0.959-0.286,0.959-0.757
		c0-0.405-0.229-0.55-0.7-0.66l-0.374-0.088c-0.246-0.057-0.361-0.119-0.361-0.286c0-0.207,0.163-0.321,0.475-0.321
		c0.313,0,0.506,0.141,0.519,0.383h0.378c0-0.004,0-0.004,0-0.009c0-0.427-0.348-0.704-0.898-0.704s-0.863,0.268-0.863,0.664
		c0,0.383,0.198,0.537,0.651,0.647l0.431,0.11c0.238,0.057,0.352,0.119,0.352,0.313c0,0.22-0.198,0.365-0.537,0.365
		c-0.361,0-0.559-0.163-0.586-0.475H14.603"/>
	<path fill-rule="evenodd" clip-rule="evenodd" fill="#FFFFFF" d="M17.22,13.209c0-0.572,0.251-0.881,0.709-0.881
		c0.449,0,0.7,0.308,0.7,0.881c0,0.572-0.251,0.88-0.7,0.88C17.475,14.089,17.22,13.781,17.22,13.209 M16.824,13.209
		c0,0.779,0.409,1.223,1.105,1.223c0.691,0,1.1-0.445,1.1-1.223c0-0.779-0.409-1.224-1.105-1.224
		C17.233,11.985,16.824,12.43,16.824,13.209z"/>
	<rect x="19.504" y="11.197" fill="#FFFFFF" width="0.392" height="3.164"/>
	<path fill-rule="evenodd" clip-rule="evenodd" fill="#FFFFFF" d="M20.875,12.06h-0.392v1.382c0,0.04,0,0.075,0,0.11
		c0,0.224,0.004,0.405,0.101,0.555c0.123,0.198,0.365,0.312,0.691,0.312c0.348,0,0.603-0.136,0.761-0.4v0.343h0.37V12.06h-0.387
		v1.241c0,0.511-0.233,0.775-0.678,0.775c-0.37,0-0.466-0.189-0.466-0.603V12.06"/>
	<path fill="#FFFFFF" d="M23.452,13.781v-1.413h0.414V12.06h-0.414v-0.642h-0.387v0.642h-0.343v0.308h0.343v1.545
		c0,0.352,0.123,0.48,0.493,0.48c0.084,0,0.189-0.013,0.308-0.035v-0.33c-0.097,0.009-0.163,0.013-0.207,0.013
		C23.487,14.04,23.452,13.97,23.452,13.781"/>
	<path fill-rule="evenodd" clip-rule="evenodd" fill="#FFFFFF" d="M25.489,13.209c0-0.572,0.251-0.881,0.709-0.881
		c0.449,0,0.7,0.308,0.7,0.881c0,0.572-0.251,0.88-0.7,0.88C25.745,14.089,25.489,13.781,25.489,13.209 M25.093,13.209
		c0,0.779,0.409,1.223,1.105,1.223c0.691,0,1.1-0.445,1.1-1.223c0-0.779-0.409-1.224-1.105-1.224
		C25.503,11.985,25.093,12.43,25.093,13.209z"/>
	<path fill-rule="evenodd" clip-rule="evenodd" fill="#FFFFFF" d="M29.3,14.362h0.392V12.98c0-0.04,0-0.075,0-0.11
		c0-0.224-0.004-0.405-0.101-0.554c-0.128-0.207-0.365-0.313-0.713-0.313c-0.321,0-0.563,0.128-0.74,0.392V12.06h-0.37v2.302h0.387
		V13.05c0-0.453,0.255-0.704,0.682-0.704c0.37,0,0.462,0.189,0.462,0.599V14.362"/>
	<path fill="#FFFFFF" d="M30.116,13.614c0.009,0.528,0.335,0.819,0.924,0.819c0.616,0,0.959-0.286,0.959-0.757
		c0-0.405-0.229-0.55-0.7-0.66l-0.374-0.088c-0.246-0.057-0.361-0.119-0.361-0.286c0-0.207,0.163-0.321,0.476-0.321
		c0.312,0,0.506,0.141,0.519,0.383h0.379c0-0.004,0-0.004,0-0.009c0-0.427-0.348-0.704-0.898-0.704c-0.55,0-0.863,0.268-0.863,0.664
		c0,0.383,0.198,0.537,0.651,0.647l0.431,0.11c0.238,0.057,0.352,0.119,0.352,0.313c0,0.22-0.198,0.365-0.537,0.365
		c-0.361,0-0.559-0.163-0.585-0.475H30.116"/>
	<circle fill-rule="evenodd" clip-rule="evenodd" fill="#FFFFFF" cx="15.24" cy="0.611" r="0.59"/>
</g>
<path id="agi-logo-flat" d="M16.649,10.145l0.003-8.45c0.023-0.269,0.058-0.585,0.104-0.715C16.876,0.634,17.16,0.253,17.847,0
	l-0.003,8.45c-0.023,0.269-0.058,0.585-0.104,0.715C17.621,9.511,17.336,9.892,16.649,10.145 M17.672,8.45V7.673l-0.001,0.788
	L17.672,8.45 M6.639,7.306c0-0.802-0.014-1.494-0.36-2.171c-0.567-1.121-1.687-1.798-2.96-1.798C1.411,3.337,0,4.761,0,6.767
	C0,7.956,0.512,8.98,1.466,9.644c0.498,0.346,1.148,0.553,1.785,0.553c0.38,0,0.738-0.05,1.076-0.15L4.098,8.97
	C3.864,9.042,3.629,9.077,3.389,9.077c-1.259,0-2.186-0.954-2.186-2.337c0-1.355,0.899-2.282,2.13-2.282S5.45,5.37,5.45,6.781v1.701
	C5.454,8.54,5.456,8.724,5.456,8.803c0,0.892,0.959,1.314,1.183,1.399V7.306 M23.708,9.581l-0.839-0.839
	c-0.304,0.182-0.658,0.279-1.046,0.279c-1.15,0-2.094-0.985-2.094-2.285c0-1.314,0.931-2.286,2.094-2.286
	c0.393,0,0.747,0.102,1.059,0.307l0.824-0.824c-0.538-0.39-1.171-0.591-1.87-0.591c-0.903,0-1.724,0.356-2.354,0.999
	c-0.63,0.657-0.971,1.492-0.971,2.409c0,1.232,0.602,2.313,1.656,2.956c0.493,0.301,1.068,0.465,1.656,0.465
	C22.534,10.17,23.178,9.964,23.708,9.581 M24.762,6.078L22.31,6.077c-0.232,0.02-0.505,0.05-0.617,0.089
	c-0.298,0.104-0.626,0.349-0.845,0.942L23.3,7.109c0.232-0.02,0.505-0.05,0.617-0.089C24.215,6.916,24.543,6.671,24.762,6.078
	 M15.853,10.145l-0.003-7.862h-1.201l0.009,6.167c0.023,0.269,0.058,0.585,0.104,0.715C14.881,9.511,15.166,9.892,15.853,10.145
	 M13.886,7.273c0-0.803-0.014-1.495-0.36-2.173c-0.568-1.121-1.689-1.8-2.963-1.8c-1.91,0-3.322,1.426-3.322,3.433
	c0,1.19,0.512,2.215,1.467,2.88c0.498,0.346,1.149,0.554,1.786,0.554c0.381,0,0.739-0.05,1.077-0.15l-0.229-1.078
	c-0.234,0.072-0.469,0.107-0.71,0.107c-1.26,0-2.187-0.955-2.187-2.34c0-1.357,0.9-2.284,2.132-2.284
	c1.232,0,2.118,0.914,2.118,2.326l-0.001,4.086c0,0.046,0,0.233-0.003,0.277c-0.064,1.321-0.929,2.167-2.115,2.167
	c-0.373,0-0.716-0.085-1.015-0.239c-0.436-0.236-0.769-0.629-0.948-1.132H7.376c0.202,0.844,0.685,1.528,1.348,1.97
	c0.224,0.145,0.467,0.262,0.728,0.349c0.347,0.117,0.723,0.179,1.122,0.179c1.266,0,2.381-0.675,2.946-1.79
	c0.045-0.088,0.084-0.176,0.119-0.265c0.236-0.599,0.247-1.362,0.247-2.066V7.273 M24.234,11.197h0.387v0.44h-0.387V11.197z
	 M24.234,12.06h0.387v2.302h-0.387V12.06z M14.603,13.614c0.009,0.528,0.334,0.819,0.924,0.819c0.616,0,0.959-0.286,0.959-0.757
	c0-0.405-0.229-0.55-0.7-0.66l-0.374-0.088c-0.246-0.057-0.361-0.119-0.361-0.286c0-0.207,0.163-0.321,0.475-0.321
	c0.313,0,0.506,0.141,0.519,0.383h0.378c0-0.004,0-0.004,0-0.009c0-0.427-0.348-0.704-0.898-0.704s-0.863,0.268-0.863,0.664
	c0,0.383,0.198,0.537,0.651,0.647l0.431,0.11c0.238,0.057,0.352,0.119,0.352,0.313c0,0.22-0.198,0.365-0.537,0.365
	c-0.361,0-0.559-0.163-0.586-0.475H14.603 M17.22,13.209c0,0.572,0.255,0.88,0.709,0.88c0.449,0,0.7-0.308,0.7-0.88
	c0-0.572-0.251-0.881-0.7-0.881C17.471,12.328,17.22,12.637,17.22,13.209 M17.924,11.985c0.696,0,1.105,0.445,1.105,1.224
	c0,0.779-0.409,1.223-1.1,1.223c-0.695,0-1.105-0.445-1.105-1.223C16.824,12.43,17.233,11.985,17.924,11.985z M19.504,14.362h0.392
	v-3.164h-0.392V14.362z M20.875,12.06h-0.392v1.382c0,0.04,0,0.075,0,0.11c0,0.224,0.004,0.405,0.101,0.555
	c0.123,0.198,0.365,0.312,0.691,0.312c0.348,0,0.603-0.136,0.761-0.4v0.343h0.37V12.06h-0.387v1.241
	c0,0.511-0.233,0.775-0.678,0.775c-0.37,0-0.466-0.189-0.466-0.603V12.06 M23.452,13.781v-1.413h0.414V12.06h-0.414v-0.642h-0.387
	v0.642h-0.343v0.308h0.343v1.545c0,0.352,0.123,0.48,0.493,0.48c0.084,0,0.189-0.013,0.308-0.035v-0.33
	c-0.097,0.009-0.163,0.013-0.207,0.013C23.487,14.04,23.452,13.97,23.452,13.781 M25.489,13.209c0,0.572,0.255,0.88,0.709,0.88
	c0.449,0,0.7-0.308,0.7-0.88c0-0.572-0.251-0.881-0.7-0.881C25.74,12.328,25.489,12.637,25.489,13.209 M26.194,11.985
	c0.695,0,1.105,0.445,1.105,1.224c0,0.779-0.409,1.223-1.1,1.223c-0.695,0-1.105-0.445-1.105-1.223
	C25.093,12.43,25.503,11.985,26.194,11.985z M29.3,14.362h0.392V12.98c0-0.04,0-0.075,0-0.11c0-0.224-0.004-0.405-0.101-0.554
	c-0.128-0.207-0.365-0.313-0.713-0.313c-0.321,0-0.563,0.128-0.74,0.392V12.06h-0.37v2.302h0.387V13.05
	c0-0.453,0.255-0.704,0.682-0.704c0.37,0,0.462,0.189,0.462,0.599V14.362 M30.116,13.614c0.009,0.528,0.335,0.819,0.924,0.819
	c0.616,0,0.959-0.286,0.959-0.757c0-0.405-0.229-0.55-0.7-0.66l-0.374-0.088c-0.246-0.057-0.361-0.119-0.361-0.286
	c0-0.207,0.163-0.321,0.476-0.321c0.312,0,0.506,0.141,0.519,0.383h0.379c0-0.004,0-0.004,0-0.009c0-0.427-0.348-0.704-0.898-0.704
	c-0.55,0-0.863,0.268-0.863,0.664c0,0.383,0.198,0.537,0.651,0.647l0.431,0.11c0.238,0.057,0.352,0.119,0.352,0.313
	c0,0.22-0.198,0.365-0.537,0.365c-0.361,0-0.559-0.163-0.585-0.475H30.116 M15.24,1.201c0.326,0,0.59-0.264,0.59-0.59
	c0-0.326-0.265-0.59-0.59-0.59c-0.326,0-0.59,0.264-0.59,0.59C14.65,0.937,14.914,1.201,15.24,1.201z"/>
<path id="agi-helix-o" d="M0,1.755C0,0.786,0.785,0,1.754,0s1.755,0.786,1.755,1.755c0,0.969-0.786,1.754-1.755,1.754
	S0,2.724,0,1.755 M2.041,5.774c0,0.969,0.786,1.755,1.755,1.755s1.755-0.786,1.755-1.755c0-0.969-0.786-1.753-1.755-1.753
	S2.041,4.805,2.041,5.774 M6.508,8.263c0,0.969,0.786,1.755,1.754,1.755c0.969,0,1.755-0.786,1.755-1.755
	c0-0.969-0.786-1.755-1.755-1.755C7.293,6.508,6.508,7.293,6.508,8.263 M10.528,10.751c0,0.969,0.785,1.753,1.754,1.753
	c0.969,0,1.755-0.785,1.755-1.753c0-0.969-0.786-1.756-1.755-1.756C11.313,8.996,10.528,9.782,10.528,10.751 M12.441,14.324
	c0,0.969,0.786,1.755,1.755,1.755c0.969,0,1.754-0.786,1.754-1.755c0-0.969-0.786-1.754-1.754-1.754
	C13.227,12.57,12.441,13.355,12.441,14.324 M13.016,18.28c0,0.969,0.786,1.755,1.755,1.755c0.969,0,1.754-0.786,1.754-1.755
	c0-0.969-0.786-1.754-1.754-1.754C13.801,16.525,13.016,17.311,13.016,18.28 M10.974,21.725c0,0.969,0.786,1.755,1.755,1.755
	c0.969,0,1.755-0.786,1.755-1.755c0-0.969-0.786-1.755-1.755-1.755C11.759,19.97,10.974,20.757,10.974,21.725 M6.508,24.277
	c0,0.969,0.786,1.755,1.754,1.755c0.969,0,1.755-0.786,1.755-1.755c0-0.969-0.786-1.754-1.755-1.754
	C7.293,22.523,6.508,23.309,6.508,24.277 M2.551,26.766c0,0.969,0.786,1.754,1.755,1.754s1.755-0.786,1.755-1.754
	c0-0.969-0.786-1.755-1.755-1.755S2.551,25.797,2.551,26.766 M0,30.212c0,0.969,0.785,1.754,1.754,1.754s1.755-0.786,1.755-1.754
	c0-0.97-0.786-1.756-1.755-1.756S0,29.242,0,30.212 M12.952,1.819c0,0.968,0.786,1.753,1.755,1.753s1.755-0.786,1.755-1.753
	c0-0.969-0.786-1.755-1.755-1.755S12.952,0.85,12.952,1.819 M10.987,5.745c0,0.969,0.785,1.754,1.754,1.754
	c0.969,0,1.755-0.786,1.755-1.754c0-0.969-0.786-1.755-1.755-1.755C11.772,3.99,10.987,4.776,10.987,5.745 M2.5,10.722
	c0,0.969,0.786,1.755,1.755,1.755c0.969,0,1.755-0.786,1.755-1.755c0-0.97-0.786-1.755-1.755-1.755
	C3.286,8.967,2.5,9.752,2.5,10.722 M0.523,14.231c0,0.969,0.786,1.754,1.755,1.754s1.754-0.785,1.754-1.754
	s-0.785-1.754-1.754-1.754S0.523,13.261,0.523,14.231 M0.458,18.25c0,0.969,0.786,1.754,1.755,1.754s1.755-0.786,1.755-1.754
	c0-0.969-0.786-1.755-1.755-1.755S0.458,17.281,0.458,18.25 M2.5,21.759c0,0.969,0.786,1.754,1.755,1.754
	c0.969,0,1.755-0.785,1.755-1.754c0-0.97-0.786-1.755-1.755-1.755C3.286,20.005,2.5,20.789,2.5,21.759 M10.923,26.737
	c0,0.968,0.786,1.753,1.754,1.753c0.969,0,1.755-0.786,1.755-1.753c0-0.97-0.786-1.756-1.755-1.756
	C11.708,24.981,10.923,25.767,10.923,26.737 M13.411,30.246c0,0.969,0.786,1.754,1.755,1.754s1.755-0.786,1.755-1.754
	c0-0.97-0.786-1.756-1.755-1.756S13.411,29.276,13.411,30.246 M4.274,29.988c-0.34,0-0.34,0.51,0,0.51h9.443
	c0.34,0,0.34-0.51,0-0.51H4.274 M6.89,26.478c-0.34,0-0.34,0.51,0,0.51h6.827c0.34,0,0.34-0.51,0-0.51H6.89 M5.295,21.501
	c-0.34,0-0.34,0.512,0,0.512h4.722c0.34,0,0.34-0.512,0-0.512H5.295 M3.637,17.992c-0.34,0-0.34,0.512,0,0.512h8.486
	c0.34,0,0.34-0.512,0-0.512H3.637 M3.19,14.037c-0.34,0-0.34,0.511,0,0.511h8.231c0.34,0,0.34-0.511,0-0.511H3.19 M5.295,10.528
	c-0.34,0-0.34,0.51,0,0.51h3.956c0.34,0,0.34-0.51,0-0.51H5.295 M6.38,5.487c-0.34,0-0.34,0.511,0,0.511h4.913
	c0.34,0,0.34-0.511,0-0.511H6.38 M4.402,1.531c-0.34,0-0.34,0.511,0,0.511h9.06c0.34,0,0.34-0.511,0-0.511H4.402"/>
<path id="agi-wallet-o" d="M5.39,12.211c0,0,17.726-0.045,20.996-0.045c3.27,0,3.316,3.316,3.316,3.316v2.107h-6.124
	c-1.285,0-4.047,1.105-4.047,4.761s4.183,4.183,4.183,4.183h6.033v2.062c0,3.271-3.406,3.406-3.406,3.406S6.181,32,3.167,32
	C0.154,32,0,28.831,0,28.831s0-13.589,0-16.755c0-3.168,3.18-3.181,3.18-3.181h2.21V12.211 M21.054,21.777v0.757
	c0,1.622,1.315,2.937,2.937,2.937h4.858c1.081,0,1.958-0.877,1.958-1.959v-2.715c0-1.08-0.877-1.958-1.958-1.958h-4.858
	C22.369,18.84,21.054,20.157,21.054,21.777 M25.282,20.769c0.741,0,1.343,0.601,1.343,1.342c0,0.742-0.601,1.343-1.343,1.343
	c-0.742,0-1.343-0.601-1.343-1.343C23.939,21.37,24.54,20.769,25.282,20.769z M11.796,11.015l2.469,0.008l2.311-5.592
	c0,0,2.911,1.253,4.568-1.837l3.122,1.387c0,0-1.316,2.942,1.805,4.511l-0.655,1.561l2.358,0.006c0,0,0.822-1.895,1.702-3.913
	c0.88-2.017-0.925-2.82-0.925-2.82s-7.138-3.032-9.483-4.048c-2.345-1.014-3.135,1.06-3.135,1.06L11.796,11.015 M9.168,11.06h1.24
	l4.016-9.765c-2.661-0.598-3.09,1.568-3.09,1.568L9.168,11.06 M7.69,11.06l2.301-8.886c0,0-2.21,0.091-2.48,1.928
	c-0.27,1.838-0.835,6.957-0.835,6.957H7.69 M15.899,10.929l0.002,0.138h8.371l0.002-0.138c0-2.313-1.875-4.188-4.187-4.188
	C17.773,6.741,15.899,8.617,15.899,10.929"/>
<path id="agi-train-o" d="M17.42,0C21.053,0,22,3.369,22,3.369s1.379,4.47,1.976,7.003c0.598,2.533,0.503,3.911,0.503,3.911v8.157
	H0.006v-8.157c0,0-0.095-1.378,0.503-3.911c0.597-2.533,1.976-7.003,1.976-7.003S3.432,0,7.064,0H17.42 M15.074,15.215
	c0,0,6.67,0.112,7.379,0.112c0.596,0,0.57-0.644,0.57-0.644c0-3.354-1.88-8.836-2.031-9.49c-0.152-0.653-0.613-0.558-0.613-0.558
	h-5.472c-0.486,0-0.502,0.502-0.502,0.502v9.409C14.405,15.311,15.074,15.215,15.074,15.215z M9.612,15.215
	c0,0,0.669,0.095,0.669-0.669V5.137c0,0-0.015-0.502-0.502-0.502H4.308c0,0-0.461-0.095-0.613,0.558
	c-0.151,0.654-2.031,6.136-2.031,9.49c0,0-0.025,0.644,0.571,0.644C2.943,15.327,9.612,15.215,9.612,15.215z M11.573,1.88
	c0,0.4,0.325,0.725,0.726,0.725c0.4,0,0.724-0.325,0.724-0.725c0-0.401-0.324-0.726-0.724-0.726
	C11.898,1.155,11.573,1.479,11.573,1.88z M18.433,19.505c0,0.673,0.438,1.11,0.976,1.11h2.627c0.54,0,0.976-0.437,0.976-1.11
	c0-0.54-0.437-0.976-0.976-0.976H19.41C18.871,18.529,18.433,18.966,18.433,19.505z M1.561,19.505c0,0.673,0.438,1.11,0.976,1.11
	h2.628c0.539,0,0.976-0.437,0.976-1.11c0-0.54-0.438-0.976-0.976-0.976H2.537C1.998,18.529,1.561,18.966,1.561,19.505z
	 M24.474,23.205c-0.14,3.295-4.855,3.983-4.855,3.983H4.865c0,0-4.715-0.688-4.856-3.983H24.474z M3.927,31.034
	c-0.528,0.527,0.264,1.319,0.791,0.791l1.681-1.68h12.08l1.68,1.68c0.528,0.528,1.32-0.264,0.792-0.791l-1.845-1.846
	c-0.041-0.041-0.339-0.164-0.396-0.164H6.167c-0.057,0-0.355,0.123-0.396,0.164L3.927,31.034"/>
<path id="agi-house-o" d="M5.336,13.433L15.923,5.06l10.544,8.288v10.284c0,1.301-1.302,1.301-1.302,1.301h-2.429v-8.636h-6.553
	v8.767H6.638c-1.258,0-1.302-1.302-1.302-1.302V13.433 M10.695,16.384H8.244v2.222h2.451V16.384z M13.842,16.384h-2.452v2.222h2.452
	V16.384z M10.695,19.206H8.244v2.222h2.451V19.206z M13.842,19.206h-2.452v2.222h2.452V19.206z M15.967,3.193L1.95,14.346
	c0,0-0.823,0.693-1.603-0.087c-0.781-0.78,0-1.519,0-1.519S13.451,1.067,14.752,0.329c1.302-0.74,2.517,0,2.517,0l4.815,4.129V1.501
	c0,0,0-1.086,1.131-1.086c1.13,0,1.215,1.128,1.215,1.128v4.926l6.856,5.879c0,0,1.215,1.128,0.475,1.867
	c-0.739,0.739-1.952-0.087-1.952-0.087L15.967,3.193z"/>
<path id="agi-cart-o" d="M31.244,0H27.21c-0.322,0-0.607,0.203-0.714,0.507l-1.661,4.764H0.756c-0.242,0-0.47,0.117-0.612,0.313
	C0.001,5.78-0.038,6.032,0.038,6.262l3.368,10.259c0.102,0.311,0.391,0.52,0.718,0.52H20.73l-1.346,3.857H6.141
	c-0.107,0-0.209,0.024-0.301,0.064c-1.62,0.04-2.927,1.364-2.927,2.994c0,1.655,1.346,3.001,3.001,3.001
	c1.655,0,3.001-1.346,3.001-3.001c0-0.568-0.167-1.093-0.442-1.546h8.947c-0.275,0.453-0.442,0.979-0.442,1.546
	c0,1.655,1.346,3.001,3.001,3.001c1.654,0,3.001-1.346,3.001-3.001c0-1.328-0.873-2.444-2.071-2.839l6.839-19.606h3.497
	C31.661,1.511,32,1.173,32,0.756S31.661,0,31.244,0z M9.855,11.986h6.216l-0.452,3.544h-5.33L9.855,11.986z M9.67,10.474
	L9.218,6.782h7.516l-0.471,3.692H9.67z M7.696,6.782l0.452,3.692H3.011L1.799,6.782H7.696z M3.507,11.986h4.825l0.434,3.544H4.671
	L3.507,11.986z M5.913,25.446c-0.821,0-1.489-0.668-1.489-1.49c0-0.822,0.668-1.49,1.489-1.49s1.49,0.668,1.49,1.49
	C7.403,24.778,6.735,25.446,5.913,25.446z M21.467,23.956c0,0.822-0.668,1.49-1.489,1.49s-1.49-0.668-1.49-1.49
	c0-0.822,0.668-1.49,1.49-1.49S21.467,23.134,21.467,23.956z M17.143,15.53l0.452-3.544h4.898l-1.236,3.544H17.143z M23.02,10.474
	h-5.233l0.471-3.692h6.05L23.02,10.474z"/>
<path id="agi-tap-o" d="M15.033,4.587v3.227c-0.825,0.276-1.532,0.809-2.028,1.502H8.031c0,0-6.959-0.14-6.959,6.959v0.947h-0.12
	c-0.409,0-0.74,0.331-0.74,0.74v2.004c0,0.41,0.331,0.74,0.74,0.74h4.672c0.41,0,0.741-0.331,0.741-0.74v-2.004
	c0-0.41-0.331-0.74-0.741-0.74H5.462v-0.424c0,0-0.127-2.965,3.006-2.965h4.39c0.72,1.159,2.004,1.931,3.468,1.931
	s2.749-0.771,3.468-1.931h4.785c0.462,1.554,1.426,2.891,2.704,3.826V5.824c-1.186,0.867-2.102,2.082-2.597,3.493H19.65
	c-0.505-0.707-1.231-1.247-2.077-1.518v-3.13c0.374-0.21,0.688-0.517,0.907-0.886h2.032c0.431,0.839,1.305,1.412,2.312,1.412
	c1.434,0,2.597-1.163,2.597-2.597C25.422,1.163,24.259,0,22.825,0c-0.938,0-1.76,0.497-2.217,1.244h-2.145
	c-0.432-0.703-1.209-1.172-2.093-1.172c-0.886,0-1.661,0.469-2.093,1.172h-2.263C11.557,0.497,10.735,0,9.797,0
	C8.363,0,7.199,1.163,7.199,2.598c0,1.434,1.164,2.597,2.598,2.597c1.007,0,1.881-0.573,2.312-1.412h2.15
	C14.452,4.107,14.717,4.383,15.033,4.587 M4.755,30.979c-0.295,0.148-0.517-0.293-0.223-0.441c0.962-0.523,0.774-2.121,0.524-2.925
	c-0.098-0.315,0.375-0.461,0.472-0.147c0.35,1.124,0.432,2.727-0.689,3.463C4.786,30.963,4.755,30.979,4.755,30.979z M3.176,32
	c0,0,3.444,0.043,3.444-3.006c0-2.498-3.304-7.001-3.304-7.001S0,26.495,0,28.994C0,32,3.176,32,3.176,32z"/>
<path id="agi-microphone-o" d="M3.115,15.557h11.732v1.957c0,3.315-2.626,6.003-5.865,6.003c-3.24,0-5.866-2.687-5.866-6.003V15.557
	z M14.815,6.003c0-1.211-0.351-2.337-0.952-3.28v7.211h-0.817V1.706c-0.299-0.297-0.63-0.565-0.986-0.792v9.02h-0.817V0.477
	c-0.315-0.137-0.645-0.247-0.985-0.327v9.784H9.441V0.021C9.279,0.007,9.116,0,8.95,0C8.784,0,8.619,0.007,8.456,0.021v9.913H7.64
	V0.151c-0.341,0.08-0.67,0.189-0.986,0.327v9.457H5.837v-9.02C5.481,1.143,5.151,1.41,4.852,1.709v8.225H4.035V2.726
	C3.434,3.669,3.085,4.794,3.085,6.003v6.569h11.731V6.003z M3.115,14.734h11.731v-1.265H3.115V14.734z M8.226,26.867v3.236H4.52
	L3.32,32h11.582l-1.2-1.897H9.997v-3.226c-0.281,0.019-0.567,0.028-0.858,0.028C8.832,26.905,8.528,26.891,8.226,26.867z
	 M16.489,10.646v8.333c-0.065,3.997-3.392,6.327-7.35,6.327c-3.967,0-7.285-2.239-7.54-6.215v-8.445c0-1.065-1.599-1.065-1.599,0
	v8.484c0.159,4.493,3.881,7.38,8.226,7.737v-0.43h1.771v0.44c4.119-0.272,7.128-2.529,7.939-6.622
	c0.15-0.757,0.152-1.264,0.152-1.264v-8.344C18.088,9.581,16.489,9.581,16.489,10.646z"/>
<path id="agi-pdf-o" d="M0,0h17.783l4.757,4.232v10.063h-1.541v-8.8h-4.118V1.59L1.542,1.57v29.006h19.456v-5.249h1.541V32H0V0
	 M11.375,19.718h0.364c0.34,0,0.595-0.069,0.764-0.2c0.168-0.137,0.253-0.333,0.253-0.59c0-0.26-0.072-0.45-0.214-0.574
	c-0.141-0.124-0.362-0.186-0.663-0.186h-0.503V19.718 M16.551,18.168h-0.589v3.397h0.475c1.065,0,1.597-0.573,1.599-1.716
	C18.036,18.729,17.541,18.168,16.551,18.168z M7.811,22.735c0,0.763,0.618,1.379,1.381,1.379h15.14c0.764,0,1.382-0.617,1.382-1.379
	v-5.728c0-0.763-0.618-1.381-1.382-1.381H9.191c-0.763,0-1.381,0.618-1.381,1.381V22.735z M13.343,20.178
	c-0.349,0.297-0.847,0.446-1.495,0.446h-0.474v1.856h-1.107v-5.217h1.666c0.633,0,1.114,0.137,1.442,0.409
	c0.331,0.272,0.496,0.678,0.496,1.218C13.872,19.45,13.696,19.88,13.343,20.178z M18.449,21.794
	c-0.487,0.457-1.192,0.686-2.115,0.686h-1.477v-5.217h1.638c0.852,0,1.513,0.224,1.984,0.674c0.471,0.448,0.706,1.077,0.706,1.883
	C19.184,20.679,18.94,21.337,18.449,21.794z M20.265,22.479v-5.217h2.99v0.906h-1.902v1.346h1.77v0.902h-1.77v2.063H20.265z"/>
<path id="agi-clock-o" d="M16,32C7.168,32,0,24.832,0,16S7.168,0,16,0s16,7.168,16,16S24.832,32,16,32z M16,4.665
	C9.749,4.665,4.665,9.749,4.665,16S9.749,27.335,16,27.335S27.335,22.251,27.335,16S22.251,4.665,16,4.665z M18.667,17.998
	c0,0.377-0.292,0.668-0.668,0.668h-6.664c-0.377,0-0.668-0.292-0.668-0.668v-1.33c0-0.377,0.292-0.668,0.668-0.668H16V8.668
	C16,8.292,16.292,8,16.668,8h1.33c0.377,0,0.668,0.292,0.668,0.668V17.998z"/>
<path id="agi-user-o" d="M23.772,32H5.561C2.251,32,0,29.98,0,26.603c0-4.708,1.106-11.936,7.207-11.936
	c0.647,0,3.377,2.894,7.459,2.894s6.812-2.894,7.459-2.894c6.102,0,7.207,7.229,7.207,11.936C29.333,29.98,27.083,32,23.772,32z
	 M14.667,16c-4.416,0-8-3.584-8-8s3.584-8,8-8s8,3.584,8,8S19.083,16,14.667,16z"/>
<path id="agi-user-circle-o" d="M16,0C7.161,0,0,7.161,0,16c0,8.804,7.143,16,16,16c8.875,0,16-7.214,16-16C32,7.161,24.839,0,16,0z
	 M27.054,24.125c-0.643-3.196-2.196-5.839-5.464-5.839c-1.446,1.411-3.411,2.286-5.589,2.286c-2.179,0-4.143-0.875-5.589-2.286
	c-3.268,0-4.821,2.643-5.464,5.839C3.286,21.839,2.286,19.036,2.286,16C2.286,8.447,8.446,2.286,16,2.286
	c7.554,0,13.714,6.161,13.714,13.714C29.714,19.036,28.714,21.839,27.054,24.125z M22.857,12.571c0,3.786-3.071,6.857-6.857,6.857
	c-3.786,0-6.857-3.071-6.857-6.857c0-3.786,3.071-6.857,6.857-6.857C19.786,5.714,22.857,8.786,22.857,12.571z"/>
<path id="agi-pound-o" d="M13.335,0c2.805,0,5.61,0.59,8.415,1.769l-2.007,4.963c-2.258-0.921-4.215-1.381-5.869-1.381
	c-1.122,0-1.985,0.32-2.589,0.96s-0.906,1.557-0.906,2.751v4.165h8.092v4.726h-8.092v3.086c0,2.445-1.086,4.229-3.258,5.351h15.493
	V32H0v-5.351c1.482-0.633,2.499-1.359,3.053-2.179s0.831-1.949,0.831-3.388v-3.129H0.043v-4.726h3.841V9.02
	c0-2.891,0.824-5.118,2.471-6.678S10.329,0,13.335,0z"/>
<path id="agi-fork-o" d="M19.333,10.125c-0.062,7.522-5.396,9.188-8.937,10.313C7.083,21.479,6,21.979,6,24v0.542
	C7.188,25.229,8,26.521,8,28c0,2.208-1.792,4-4,4s-4-1.792-4-4c0-1.479,0.812-2.771,2-3.458V7.458C0.812,6.771,0,5.479,0,4
	c0-2.208,1.792-4,4-4s4,1.792,4,4c0,1.479-0.812,2.771-2,3.458v10.355c1.063-0.521,2.187-0.876,3.209-1.188
	c3.874-1.23,6.084-2.146,6.125-6.501c-1.188-0.686-2-1.979-2-3.458c0-2.208,1.792-4,4-4s4,1.792,4,4
	C21.333,8.146,20.521,9.438,19.333,10.125z M4,2C2.896,2,2,2.896,2,4s0.896,2,2,2s2-0.896,2-2S5.104,2,4,2z M4,26
	c-1.104,0-2,0.896-2,2s0.896,2,2,2s2-0.896,2-2S5.104,26,4,26z M17.333,4.667c-1.104,0-2,0.896-2,2s0.896,2,2,2c1.104,0,2-0.896,2-2
	S18.437,4.667,17.333,4.667z"/>
<path id="agi-cube-o" d="M32,22.154c0,0.903-0.5,1.73-1.288,2.153l-13.538,7.385C16.807,31.905,16.404,32,16,32
	s-0.807-0.095-1.173-0.308L1.288,24.307C0.5,23.884,0,23.057,0,22.154V7.385c0-1.037,0.653-1.963,1.615-2.307l13.538-4.923
	C15.422,0.059,15.711,0,16,0c0.289,0,0.578,0.059,0.847,0.154l13.538,4.923C31.347,5.422,32,6.347,32,7.385V22.154z M29.424,7.345
	L16,2.462L2.576,7.345L16,12.232L29.424,7.345z M29.538,22.154V9.922l-12.308,4.483v14.461L29.538,22.154z"/>
<path id="agi-external-link-square" d="M32,26.002C32,29.312,29.312,32,26,32H6c-3.312,0-6-2.688-6-5.998V5.998C0,2.688,2.688,0,6,0
	h20c3.312,0,6,2.688,6,5.998V26.002z M26.667,6.667c0-0.729-0.604-1.333-1.333-1.333h-10c-0.542,0-1.021,0.334-1.229,0.814
	C13.895,6.645,14,7.229,14.396,7.605l2.999,2.998L6.27,21.728c-0.521,0.522-0.521,1.355,0,1.877l2.126,2.123
	c0.521,0.522,1.353,0.522,1.874,0l11.125-11.125l3.001,3.001c0.249,0.27,0.583,0.398,0.937,0.398c0.167,0,0.354-0.043,0.521-0.106
	c0.48-0.207,0.812-0.686,0.812-1.23V6.667z"/>
<path id="agi-server-o" d="M32,6.857H0V0h32V6.857z M32,16H0V9.143h32V16z M32,25.143H0v-6.857h32V25.143z M20.571,4.571V2.286
	H2.286v2.286H20.571z M20.571,13.714v-2.286H2.286v2.286H20.571z M20.571,22.857v-2.286H2.286v2.286H20.571z M28.571,1.714
	c-0.946,0-1.714,0.768-1.714,1.714s0.768,1.714,1.714,1.714s1.714-0.768,1.714-1.714S29.518,1.714,28.571,1.714z M28.571,10.857
	c-0.946,0-1.714,0.768-1.714,1.714c0,0.946,0.768,1.714,1.714,1.714s1.714-0.768,1.714-1.714
	C30.286,11.625,29.518,10.857,28.571,10.857z M28.571,20c-0.946,0-1.714,0.768-1.714,1.714c0,0.946,0.768,1.714,1.714,1.714
	s1.714-0.768,1.714-1.714C30.286,20.768,29.518,20,28.571,20z"/>
</svg>
